<?xml version="1.0" standalone="no"?>
<!DOCTYPE svg PUBLIC "-//W3C//DTD SVG 20010904//EN"
 "http://www.w3.org/TR/2001/REC-SVG-20010904/DTD/svg10.dtd">
<svg version="1.0" xmlns="http://www.w3.org/2000/svg"
 width="554.000000pt" height="433.000000pt" viewBox="0 0 554.000000 433.000000"
 preserveAspectRatio="xMidYMid meet">

<g transform="translate(0.000000,433.000000) scale(0.100000,-0.100000)"
fill="#000000" stroke="none">
<path d="M2110 2307 l0 -1954 138 -43 c75 -23 269 -85 431 -136 161 -52 297
-94 302 -94 5 0 10 755 11 1678 l3 1677 27 57 c39 83 94 106 176 72 54 -22 99
-70 125 -133 l22 -56 3 -725 3 -726 32 -13 c18 -7 73 -27 122 -43 115 -39 276
-49 372 -25 214 55 359 220 425 482 21 82 23 112 22 340 0 219 -3 263 -22 353
-94 435 -335 672 -892 880 -259 97 -915 285 -1194 342 -54 11 -100 20 -102 20
-2 0 -4 -879 -4 -1953z"/>
<path d="M1225 1646 c-750 -268 -749 -268 -867 -327 -210 -106 -278 -175 -278
-286 0 -133 139 -251 390 -331 367 -117 750 -168 1087 -144 161 12 356 36 374
48 11 6 12 441 2 447 -5 2 -105 -31 -223 -74 -311 -114 -354 -123 -535 -124
-120 0 -160 4 -202 18 -47 16 -93 55 -93 78 0 17 52 68 87 85 21 9 247 92 503
184 l465 166 3 252 c2 235 1 252 -15 251 -10 0 -324 -110 -698 -243z"/>
<path d="M3830 1655 c-188 -23 -469 -84 -610 -133 l-55 -19 -3 -261 c-2 -191
1 -262 9 -262 6 0 236 79 510 175 527 185 602 205 764 205 183 -1 311 -57 277
-122 -24 -43 -81 -70 -389 -179 -169 -61 -402 -143 -518 -184 -115 -41 -309
-110 -430 -153 l-220 -79 -3 -251 c-2 -180 1 -252 9 -252 6 0 198 67 427 149
230 82 665 238 967 346 570 203 724 269 827 350 79 62 111 112 116 184 5 72
-16 118 -86 183 -135 126 -533 257 -922 303 -153 18 -521 18 -670 0z"/>
<path d="M5089 467 c-150 -80 -141 -296 16 -368 79 -36 171 -15 232 54 117
133 25 337 -152 337 -35 0 -66 -8 -96 -23z m176 -30 c104 -59 123 -194 39
-274 -87 -81 -227 -56 -275 50 -23 53 -24 91 0 142 44 95 149 132 236 82z"/>
<path d="M5100 296 c0 -109 1 -116 20 -116 17 0 20 7 20 46 l0 45 48 -3 47 -3
3 -42 c3 -37 6 -43 26 -43 21 0 22 3 16 43 -4 23 -10 49 -14 58 -4 10 -3 20 3
24 18 11 12 61 -9 80 -13 12 -42 19 -90 23 l-70 5 0 -117z m138 50 c5 -26 -24
-46 -65 -46 -31 0 -33 2 -33 36 l0 35 47 -3 c38 -2 49 -7 51 -22z"/>
</g>
</svg>
